{
  "accessors": [
    {
      "bufferView": 2,
      "componentType": 5126,
      "count": 410,
      "max": [
        44.79664993286133,
        -24.268157958984375,
        76.78423309326172
      ],
      "min": [
        -46.291412353515625,
        -35.865535736083984,
        60.07636642456055
      ],
      "type": "VEC3"
    },
    {
      "bufferView": 2,
      "byteOffset": 4920,
      "componentType": 5126,
      "count": 410,
      "max": [
        0.985292911529541,
        0.9884435534477234,
        0.985053539276123
      ],
      "min": [
        -0.9745258688926697,
        -0.9980659484863281,
        -0.9881153106689453
      ],
      "type": "VEC3"
    },
    {
      "bufferView": 3,
      "componentType": 5126,
      "count": 410,
      "max": [
        0.0,
        0.0,
        0.0,
        1.0
      ],
      "min": [
        0.0,
        0.0,
        0.0,
        1.0
      ],
      "type": "VEC4"
    },
    {
      "bufferView": 0,
      "componentType": 5125,
      "count": 2214,
      "type": "SCALAR"
    },
    {
      "bufferView": 2,
      "byteOffset": 9840,
      "componentType": 5126,
      "count": 882,
      "max": [
        47.475467681884766,
        7.031711101531982,
        86.72224426269531
      ],
      "min": [
        -54.05318069458008,
        -36.42405700683594,
        43.94856262207031
      ],
      "type": "VEC3"
    },
    {
      "bufferView": 2,
      "byteOffset": 20424,
      "componentType": 5126,
      "count": 882,
      "max": [
        0.9983546137809753,
        0.9995400905609131,
        0.9994094371795654
      ],
      "min": [
        -0.9983547925949097,
        -0.9962142705917358,
        -0.9983750581741333
      ],
      "type": "VEC3"
    },
    {
      "bufferView": 3,
      "byteOffset": 6560,
      "componentType": 5126,
      "count": 882,
      "max": [
        1.0,
        1.0,
        1.0,
        1.0
      ],
      "min": [
        0.9960784316062927,
        0.9960784316062927,
        0.9960784316062927,
        1.0
      ],
      "type": "VEC4"
    },
    {
      "bufferView": 1,
      "componentType": 5126,
      "count": 882,
      "max": [
        0.990880012512207,
        0.7431600093841553
      ],
      "min": [
        0.009109999984502792,
        0.006829999852925539
      ],
      "type": "VEC2"
    },
    {
      "bufferView": 0,
      "byteOffset": 8856,
      "componentType": 5125,
      "count": 4608,
      "type": "SCALAR"
    },
    {
      "bufferView": 2,
      "byteOffset": 31008,
      "componentType": 5126,
      "count": 4994,
      "max": [
        43.74557876586914,
        39.310787200927734,
        68.46859741210938
      ],
      "min": [
        -41.71989059448242,
        10.22043514251709,
        -61.199092864990234
      ],
      "type": "VEC3"
    },
    {
      "bufferView": 2,
      "byteOffset": 90936,
      "componentType": 5126,
      "count": 4994,
      "max": [
        0.8125187754631042,
        0.9999396800994873,
        0.9615795612335205
      ],
      "min": [
        -0.8081883788108826,
        -0.9999265074729919,
        -0.9896401166915894
      ],
      "type": "VEC3"
    },
    {
      "bufferView": 3,
      "byteOffset": 20672,
      "componentType": 5126,
      "count": 4994,
      "max": [
        0.3921568691730499,
        0.30588236451148987,
        0.5803921818733215,
        1.0
      ],
      "min": [
        0.3921568691730499,
        0.30588236451148987,
        0.5803921818733215,
        1.0
      ],
      "type": "VEC4"
    },
    {
      "bufferView": 0,
      "byteOffset": 27288,
      "componentType": 5125,
      "count": 28416,
      "type": "SCALAR"
    },
    {
      "bufferView": 2,
      "byteOffset": 150864,
      "componentType": 5126,
      "count": 2205,
      "max": [
        8.140220642089844,
        15.780240058898926,
        -32.730262756347656
      ],
      "min": [
        -6.144845962524414,
        4.753973484039307,
        -211.7249298095703
      ],
      "type": "VEC3"
    },
    {
      "bufferView": 2,
      "byteOffset": 177324,
      "componentType": 5126,
      "count": 2205,
      "max": [
        0.9998286366462708,
        0.9999478459358215,
        0.9042971134185791
      ],
      "min": [
        -0.9998229146003723,
        -0.9999029040336609,
        -0.9383200407028198
      ],
      "type": "VEC3"
    },
    {
      "bufferView": 3,
      "byteOffset": 100576,
      "componentType": 5126,
      "count": 2205,
      "max": [
        0.529411792755127,
        0.9176470637321472,
        0.9529411792755127,
        1.0
      ],
      "min": [
        0.529411792755127,
        0.9176470637321472,
        0.9529411792755127,
        1.0
      ],
      "type": "VEC4"
    },
    {
      "bufferView": 0,
      "byteOffset": 140952,
      "componentType": 5125,
      "count": 13152,
      "type": "SCALAR"
    },
    {
      "bufferView": 2,
      "byteOffset": 203784,
      "componentType": 5126,
      "count": 931,
      "max": [
        4.789779186248779,
        -26.562938690185547,
        48.610504150390625
      ],
      "min": [
        -18.84083366394043,
        -28.953739166259766,
        44.45865249633789
      ],
      "type": "VEC3"
    },
    {
      "bufferView": 2,
      "byteOffset": 214956,
      "componentType": 5126,
      "count": 931,
      "max": [
        0.9998024106025696,
        0.999650776386261,
        0.9999954104423523
      ],
      "min": [
        -0.9994884729385376,
        -0.9998870491981506,
        -0.9984871745109558
      ],
      "type": "VEC3"
    },
    {
      "bufferView": 3,
      "byteOffset": 135856,
      "componentType": 5126,
      "count": 931,
      "max": [
        1.0,
        1.0,
        1.0,
        1.0
      ],
      "min": [
        1.0,
        1.0,
        1.0,
        1.0
      ],
      "type": "VEC4"
    },
    {
      "bufferView": 0,
      "byteOffset": 193560,
      "componentType": 5125,
      "count": 4902,
      "type": "SCALAR"
    },
    {
      "bufferView": 2,
      "byteOffset": 226128,
      "componentType": 5126,
      "count": 5838,
      "max": [
        46.853572845458984,
        36.60683059692383,
        81.7823715209961
      ],
      "min": [
        -46.49736022949219,
        -45.11916732788086,
        -70.15353393554688
      ],
      "type": "VEC3"
    },
    {
      "bufferView": 2,
      "byteOffset": 296184,
      "componentType": 5126,
      "count": 5838,
      "max": [
        0.9999421238899231,
        0.999970555305481,
        0.9996607303619385
      ],
      "min": [
        -0.9993060827255249,
        -0.9999281167984009,
        -0.9989843368530273
      ],
      "type": "VEC3"
    },
    {
      "bufferView": 3,
      "byteOffset": 150752,
      "componentType": 5126,
      "count": 5838,
      "max": [
        0.8156862854957581,
        0.5333333611488342,
        0.8078431487083435,
        1.0
      ],
      "min": [
        0.027450980618596077,
        0.07058823853731155,
        0.125490203499794,
        1.0
      ],
      "type": "VEC4"
    },
    {
      "bufferView": 0,
      "byteOffset": 213168,
      "componentType": 5125,
      "count": 33924,
      "type": "SCALAR"
    },
    {
      "bufferView": 2,
      "byteOffset": 366240,
      "componentType": 5126,
      "count": 3074,
      "max": [
        47.24729919433594,
        36.88460159301758,
        25.778202056884766
      ],
      "min": [
        -46.311798095703125,
        -31.863298416137695,
        -52.871002197265625
      ],
      "type": "VEC3"
    },
    {
      "bufferView": 2,
      "byteOffset": 403128,
      "componentType": 5126,
      "count": 3074,
      "max": [
        0.987855076789856,
        0.9990364909172058,
        0.9996353387832642
      ],
      "min": [
        -0.9878758788108826,
        -0.9990372061729431,
        -0.9991680979728699
      ],
      "type": "VEC3"
    },
    {
      "bufferView": 3,
      "byteOffset": 244160,
      "componentType": 5126,
      "count": 3074,
      "max": [
        0.7215686440467834,
        0.3490196168422699,
        0.6117647290229797,
        1.0
      ],
      "min": [
        0.3529411852359772,
        0.22745098173618317,
        0.4431372582912445,
        1.0
      ],
      "type": "VEC4"
    },
    {
      "bufferView": 0,
      "byteOffset": 348864,
      "componentType": 5125,
      "count": 9216,
      "type": "SCALAR"
    }
  ],
  "asset": {
    "extras": {
      "author": "deadzebra (https://sketchfab.com/deadzebra)",
      "license": "CC-BY-NC-ND-4.0 (http://creativecommons.org/licenses/by-nc-nd/4.0/)",
      "source": "https://sketchfab.com/3d-models/bloopbug-eb33bb8a0d464a8c863130eb9edfbf1b",
      "title": "BloopBug"
    },
    "generator": "Sketchfab-12.64.0",
    "version": "2.0"
  },
  "bufferViews": [
    {
      "buffer": 0,
      "byteLength": 385728,
      "name": "floatBufferViews",
      "target": 34963
    },
    {
      "buffer": 0,
      "byteLength": 7056,
      "byteOffset": 385728,
      "byteStride": 8,
      "name": "floatBufferViews",
      "target": 34962
    },
    {
      "buffer": 0,
      "byteLength": 440016,
      "byteOffset": 392784,
      "byteStride": 12,
      "name": "floatBufferViews",
      "target": 34962
    },
    {
      "buffer": 0,
      "byteLength": 293344,
      "byteOffset": 832800,
      "byteStride": 16,
      "name": "floatBufferViews",
      "target": 34962
    }
  ],
  "buffers": [
    {
      "byteLength": 1126144,
      "uri": "scene.bin"
    }
  ],
  "extensionsRequired": [
    "KHR_materials_pbrSpecularGlossiness"
  ],
  "extensionsUsed": [
    "KHR_materials_pbrSpecularGlossiness"
  ],
  "materials": [
    {
      "doubleSided": true,
      "extensions": {
        "KHR_materials_pbrSpecularGlossiness": {
          "diffuseFactor": [
            1.0,
            1.0,
            1.0,
            1.0
          ],
          "glossinessFactor": 0.4,
          "specularFactor": [
            0.0,
            0.0,
            0.0
          ]
        }
      },
      "name": "material_0"
    },
    {
      "doubleSided": true,
      "extensions": {
        "KHR_materials_pbrSpecularGlossiness": {
          "diffuseFactor": [
            1.0,
            1.0,
            1.0,
            1.0
          ],
          "glossinessFactor": 0.4,
          "specularFactor": [
            0.0,
            0.0,
            0.0
          ]
        }
      },
      "name": "material_1"
    },
    {
      "doubleSided": true,
      "extensions": {
        "KHR_materials_pbrSpecularGlossiness": {
          "diffuseFactor": [
            1.0,
            1.0,
            1.0,
            1.0
          ],
          "glossinessFactor": 0.4,
          "specularFactor": [
            0.0,
            0.0,
            0.0
          ]
        }
      },
      "name": "material_2"
    },
    {
      "alphaMode": "BLEND",
      "doubleSided": true,
      "extensions": {
        "KHR_materials_pbrSpecularGlossiness": {
          "diffuseFactor": [
            0.6926136363636364,
            0.6926136363636364,
            0.6926136363636364,
            0.6017045454545454
          ],
          "glossinessFactor": 0.4,
          "specularFactor": [
            0.21382575757575759,
            0.21382575757575759,
            0.21382575757575759
          ]
        }
      },
      "name": "material_3"
    },
    {
      "doubleSided": true,
      "extensions": {
        "KHR_materials_pbrSpecularGlossiness": {
          "diffuseFactor": [
            1.0,
            1.0,
            1.0,
            1.0
          ],
          "glossinessFactor": 0.4,
          "specularFactor": [
            0.0,
            0.0,
            0.0
          ]
        }
      },
      "name": "material_4"
    },
    {
      "doubleSided": true,
      "extensions": {
        "KHR_materials_pbrSpecularGlossiness": {
          "diffuseFactor": [
            0.8,
            0.8,
            0.8,
            1.0
          ],
          "glossinessFactor": 0.0,
          "specularFactor": [
            0.0,
            0.0,
            0.0
          ]
        }
      },
      "name": "defaultMat"
    },
    {
      "doubleSided": true,
      "extensions": {
        "KHR_materials_pbrSpecularGlossiness": {
          "diffuseFactor": [
            1.0,
            1.0,
            1.0,
            1.0
          ],
          "glossinessFactor": 0.4,
          "specularFactor": [
            0.0,
            0.0,
            0.0
          ]
        }
      },
      "name": "material_5"
    }
  ],
  "meshes": [
    {
      "name": "Object_0",
      "primitives": [
        {
          "attributes": {
            "COLOR_0": 2,
            "NORMAL": 1,
            "POSITION": 0
          },
          "indices": 3,
          "material": 6,
          "mode": 4
        }
      ]
    },
    {
      "name": "Object_1",
      "primitives": [
        {
          "attributes": {
            "COLOR_0": 6,
            "NORMAL": 5,
            "POSITION": 4,
            "TEXCOORD_0": 7
          },
          "indices": 8,
          "material": 5,
          "mode": 4
        }
      ]
    },
    {
      "name": "Object_2",
      "primitives": [
        {
          "attributes": {
            "COLOR_0": 11,
            "NORMAL": 10,
            "POSITION": 9
          },
          "indices": 12,
          "material": 4,
          "mode": 4
        }
      ]
    },
    {
      "name": "Object_3",
      "primitives": [
        {
          "attributes": {
            "COLOR_0": 15,
            "NORMAL": 14,
            "POSITION": 13
          },
          "indices": 16,
          "material": 3,
          "mode": 4
        }
      ]
    },
    {
      "name": "Object_4",
      "primitives": [
        {
          "attributes": {
            "COLOR_0": 19,
            "NORMAL": 18,
            "POSITION": 17
          },
          "indices": 20,
          "material": 2,
          "mode": 4
        }
      ]
    },
    {
      "name": "Object_5",
      "primitives": [
        {
          "attributes": {
            "COLOR_0": 23,
            "NORMAL": 22,
            "POSITION": 21
          },
          "indices": 24,
          "material": 1,
          "mode": 4
        }
      ]
    },
    {
      "name": "Object_6",
      "primitives": [
        {
          "attributes": {
            "COLOR_0": 27,
            "NORMAL": 26,
            "POSITION": 25
          },
          "indices": 28,
          "material": 0,
          "mode": 4
        }
      ]
    }
  ],
  "nodes": [
    {
      "children": [
        1
      ],
      "matrix": [
        0.8412182331085205,
        -0.4909589588642121,
        0.22651977837085713,
        0.0,
        0.0963476300239563,
        -0.27612677216529824,
        -0.9562798142433168,
        0.0,
        0.5320423245429993,
        0.8262646794319153,
        -0.1849801391363142,
        0.0,
        33.0109748840332,
        -13.275309562683104,
        -10.689550399780277,
        1.0
      ],
      "name": "Sketchfab_model"
    },
    {
      "children": [
        2,
        4,
        6,
        8,
        10,
        12,
        14
      ],
      "name": "zbrush_concat.osgb.cleaner.materialmerger.gles"
    },
    {
      "children": [
        3
      ],
      "name": "/sketchfab-data/processing/models/d300ba8b1b3b4d97a59160fc508012b1/eb33bb8a0d464a8c863130eb9edfbf1b/e805a69cbbf44b0293bb9535d64dcecc/preprocess/SubTool-6-10175236.OBJ"
    },
    {
      "mesh": 0,
      "name": "Object_3"
    },
    {
      "children": [
        5
      ],
      "name": "/sketchfab-data/processing/models/d300ba8b1b3b4d97a59160fc508012b1/eb33bb8a0d464a8c863130eb9edfbf1b/e805a69cbbf44b0293bb9535d64dcecc/preprocess/SubTool-5-666178.OBJ"
    },
    {
      "mesh": 1,
      "name": "Object_5"
    },
    {
      "children": [
        7
      ],
      "name": "/sketchfab-data/processing/models/d300ba8b1b3b4d97a59160fc508012b1/eb33bb8a0d464a8c863130eb9edfbf1b/e805a69cbbf44b0293bb9535d64dcecc/preprocess/SubTool-4-13240927.OBJ"
    },
    {
      "mesh": 2,
      "name": "Object_7"
    },
    {
      "children": [
        9
      ],
      "name": "/sketchfab-data/processing/models/d300ba8b1b3b4d97a59160fc508012b1/eb33bb8a0d464a8c863130eb9edfbf1b/e805a69cbbf44b0293bb9535d64dcecc/preprocess/SubTool-3-15196062.OBJ"
    },
    {
      "mesh": 3,
      "name": "Object_9"
    },
    {
      "children": [
        11
      ],
      "name": "/sketchfab-data/processing/models/d300ba8b1b3b4d97a59160fc508012b1/eb33bb8a0d464a8c863130eb9edfbf1b/e805a69cbbf44b0293bb9535d64dcecc/preprocess/SubTool-2-10806208.OBJ"
    },
    {
      "mesh": 4,
      "name": "Object_11"
    },
    {
      "children": [
        13
      ],
      "name": "/sketchfab-data/processing/models/d300ba8b1b3b4d97a59160fc508012b1/eb33bb8a0d464a8c863130eb9edfbf1b/e805a69cbbf44b0293bb9535d64dcecc/preprocess/SubTool-1-666178.OBJ"
    },
    {
      "mesh": 5,
      "name": "Object_13"
    },
    {
      "children": [
        15
      ],
      "name": "/sketchfab-data/processing/models/d300ba8b1b3b4d97a59160fc508012b1/eb33bb8a0d464a8c863130eb9edfbf1b/e805a69cbbf44b0293bb9535d64dcecc/preprocess/SubTool-0-10233600.OBJ"
    },
    {
      "mesh": 6,
      "name": "Object_15"
    }
  ],
  "scene": 0,
  "scenes": [
    {
      "name": "Sketchfab_Scene",
      "nodes": [
        0
      ]
    }
  ]
}
