<svg xmlns="http://www.w3.org/2000/svg" version="1.1" xmlns:xlink="http://www.w3.org/1999/xlink"
     xmlns:svgjs="http://svgjs.dev/svgjs" width="2000" height="2250" viewBox="0 0 2000 2250">
    <g transform="matrix(1,0,0,1,0,0)">
        <svg viewBox="0 0 320 360" data-background-color="#5e1914" preserveAspectRatio="xMidYMid meet" height="2250"
             width="2000" xmlns="http://www.w3.org/2000/svg" xmlns:xlink="http://www.w3.org/1999/xlink">
            <g id="tight-bounds" transform="matrix(1,0,0,1,0,0)">
                <svg viewBox="0 0 320 360" height="360" width="320">
                    <g>
                        <svg></svg>
                    </g>
                    <g>
                        <svg viewBox="0 0 320 360" height="360" width="320">
                            <g>
                                <path d="M219.58 41.008c0.707 0 6.365 2.829 9.547 3.89-1.061 0.354-3.536-0.707-6.365-1.768 0.707 0 2.122 0.354 3.536 1.06-0.707-0.707-6.011-2.475-6.718-3.182M166.895 30.047c1.061-0.354 13.436 1.414 19.094 1.768 0.354-0.354-0.707-0.354-2.122-0.707 1.768-0.354 5.304 0.707 7.779 1.06-7.425 0.354-15.558-1.768-22.629-1.06-2.475 0-0.707-0.707-2.122-1.061M156.641 30.047c6.365 0 11.315 0 2.121 0.707-1.061-0.354-2.475-0.354-2.121-0.707M256.707 59.395c0.707 0 3.536 3.182 4.95 4.243-0.354 0.354-3.182-2.475-4.596-3.536 0.354 0.354 0 0-0.354-0.707M249.635 54.798c-2.829-2.475-3.889-2.475-4.243-3.889 2.475 1.414 4.243 2.829 4.243 3.889M204.022 32.522c0.354-0.354 1.061 0.354 2.829 0.707-2.122-0.354-1.768 0-1.061 0.707-2.475-0.354-3.182-0.707-2.475-1.414 1.414 0.707 1.768 0.354 0.707 0M103.602 36.765c0-0.354 1.414-1.061 2.475-1.414-1.061 0.707-0.707 1.061 1.061 0.353 0 0.354-2.122 1.061-3.536 1.768 0.707-0.354 1.414-1.414 0-0.707M211.094 28.986c-1.061 0.354-4.95-1.768-8.84-2.475-2.122-0.707 8.486 1.768 8.84 2.475M2.475 203.66c2.122 8.84 0.707 8.486 0 0M2.829 150.621c0.354-1.414 0.707-5.304 1.06-4.95-1.061 8.486-2.829 12.376-3.182 18.74 1.061-5.657-0.354 3.182-0.707 5.304 0.354 2.829 0.354-1.768 1.061-1.06 0.707 1.061-1.414 15.912-0.707 7.779-0.707 7.425 0 15.558 1.414 17.679-1.768 11.315 7.072 36.773 8.84 42.077 0.354 0.354 0-1.768 0.707-0.353 0.707 4.597 3.889 7.779 4.95 12.729 1.061 1.414 5.304 9.193 6.011 10.962 1.414 2.829 2.122 2.475 3.536 5.303 4.243 8.133 10.961 15.912 17.326 23.337 20.508 24.044 51.978 43.845 86.984 50.918 35.006 7.425 71.779 2.122 100.419-11.669 1.768-1.061 1.414-1.414 3.536-2.122 9.901-3.182 21.923-13.436 28.641-17.326 3.182-3.536 11.669-9.547 12.73-13.082 6.011-4.95 12.022-13.083 15.204-18.387 1.768-2.829 3.182-2.829 3.889-4.597-0.354 0 5.657-7.425 7.426-11.668-0.707 0-1.768 2.122-1.768 0 12.729-24.398 19.801-57.282 15.911-79.912 0.707 27.934-6.365 59.05-19.801 78.851-6.011 12.729-18.387 26.519-29.701 36.42-1.768 1.768-3.536 3.889-5.658 5.304-6.718 5.657-14.144 10.254-21.922 14.497-18.387 10.254-38.895 19.094-62.94 19.447 41.37-3.536 78.497-24.398 99.006-49.856-15.558 15.204-22.276 21.215-39.602 30.055-1.414 2.475-13.083 7.425-20.862 9.547 4.597-2.122 14.144-5.657 17.326-8.486-25.812 12.376-54.453 19.448-81.326 15.558 10.254 0 24.751 0.354 38.541-2.121 2.122-0.707 3.182-1.414 5.658-1.768 26.873-6.011 52.685-19.094 71.072-37.481-10.608 9.547-26.519 20.862-36.774 24.398 9.547-5.304 26.873-15.558 32.53-23.337-11.315 11.315-32.53 22.63-45.966 27.58-2.122 0.354 1.414-1.414-2.122 0-4.243 1.061-2.475 1.061-3.536 1.768-16.265 4.597-35.006 8.486-50.563 7.072-2.829-0.354-3.889-1.061-6.365-1.061-2.829-0.354-5.304-0.354-8.486-0.354-12.376-1.414-25.812-6.365-35.713-10.607-5.304-2.475-10.608-4.243-15.912-7.426-4.243-2.475-7.779-5.304-11.314-8.132-13.436-9.901-24.751-19.801-35.36-33.945-19.094-26.519-28.994-59.757-27.58-92.641 1.414-32.884 14.497-65.061 35.359-88.752-1.061 1.061 1.414-2.475 3.536-4.596 0 0.707-0.354 1.768 2.122-0.707 2.122-2.475-0.707-0.707 0.353-2.122 21.923-24.044 60.111-43.492 99.36-44.199 1.414-1.061 3.889-2.475 6.718-1.768 0 0.354-1.768 0.354-1.768 0.354 3.889-0.354 7.425-0.354 9.193 0.353 0.354-0.354-1.414-0.707 0-0.707 2.475 0.707 3.182 0 4.597 0.707-1.061 0-2.122 0-2.829 0.354 8.84 0 14.497 2.122 23.337 2.829-4.597-1.061-5.657-1.061-9.193-2.122 3.889 0.707 5.657 1.414 7.425 1.061-0.707 0-0.354-1.061 0.354-0.707 7.072 1.768 7.779 2.475 15.204 4.95 0.707-0.707-3.182-1.061-4.243-2.122 7.072 2.475 13.436 4.243 17.68 7.072-1.414-1.061-5.657-2.475-8.84-3.889-0.354 0.354 1.061 0.707 1.414 1.414-3.536-1.768-8.486-3.536-13.436-4.243 4.243 1.061 7.072 2.475 8.84 3.182-3.889-0.707-8.84-3.182-14.498-4.243 9.193 2.829 26.519 9.193 37.127 14.851-3.889-2.475-8.486-4.243-10.961-5.657 2.122 0.354 4.597 1.768 4.597 1.06 2.475 1.061 5.657 3.536 7.425 3.89-3.182-2.122-9.547-5.304-11.668-6.365 26.519 12.022 50.21 32.177 65.414 57.989 1.414 2.475 3.536 8.133 5.304 8.84-0.354-1.768-1.768-2.829-3.182-5.657 0.707 0 0.707-1.061 0-2.122-1.414-1.768 0 1.414-1.415-0.354-6.365-11.669-14.144-21.923-26.165-33.237 6.718 6.365 1.768 1.768 0.353-0.354 9.193 8.133 19.801 21.923 24.398 28.995-0.707-1.061-1.061-1.768-0.707-1.768 8.486 14.497 13.79 27.58 19.094 46.32 0.354 0.354 0-1.414 0.707-0.353 3.536 14.851 4.597 27.227 4.243 38.541 2.829-19.094-3.536-48.796-14.851-72.133-1.414-2.829-1.414-0.707-2.829-3.889 0-1.061-1.061-3.182-1.768-4.597-14.144-23.337-31.47-39.956-51.978-53.038 1.414 0.707 4.243 2.829 4.244 2.475-38.188-25.105-82.387-28.641-118.807-20.862-2.475 1.061-3.536 2.122-6.365 3.536 5.304-1.768 8.486-2.122 13.437-3.183 1.061-1.061-4.597 0.354-2.122-0.707 0.354 0.354 4.95-0.707 6.011-0.353 0 0.354-1.414 0.707-1.768 1.06 11.669-2.475 23.691-2.829 33.945-2.121-6.011 0.354-16.972-0.707-20.508 1.061 3.536-0.354 8.486-0.707 11.668-0.354-4.243 0-12.022 0.354-15.558 0.707-0.354-0.354 5.657-1.061 1.768-1.06-1.768 0.354-4.597 0.354-5.657 1.414-30.409 2.829-60.111 18.74-80.973 37.481-4.243 3.536-9.193 7.425-12.375 11.314-7.779 8.84-12.729 17.68-18.387 25.459 3.536-7.425 11.315-18.74 20.508-28.287 9.193-9.547 19.094-17.68 24.398-21.923 0 1.414 8.486-5.304 11.669-7.425-2.122 1.768 1.414-0.707 2.121-0.354 11.315-6.718 20.508-9.193 30.763-13.083-2.475 0.707-4.597 1.414-4.951 1.061 2.475-0.707 3.889-1.414 3.536-1.768-9.901 2.829-25.459 9.547-37.834 16.972 22.276-15.204 50.564-24.398 78.497-24.751 27.934-0.707 55.16 6.365 76.729 17.68 14.497 6.365 28.287 18.033 39.249 29.348 3.182 2.829 0.707-0.707 5.304 4.243-1.414-0.707-2.475-1.414-0.707 0.707 2.829 3.182-0.707-2.475 3.889 3.182-0.354 0-1.768-1.768-1.768-1.061 12.376 10.961 21.923 30.762 27.58 43.846-1.414-5.304-4.95-12.729-7.779-18.033 8.486 15.558 11.315 24.751 14.851 38.541 1.414 1.061-0.707-4.95 0.707-2.121 0.354 2.122 0.707 8.84 2.122 9.9-1.061-6.718-2.829-14.851-4.243-16.265 1.061 0.707-1.768-8.133-3.536-10.254-0.707-5.657-5.657-15.558-9.901-22.984-15.204-29.702-42.431-54.099-72.839-67.536 0-0.707-1.768-1.414-2.476-2.121-30.055-12.729-66.122-16.265-100.773-8.133-35.006 8.486-67.889 28.641-91.227 57.636 1.061-3.536 9.901-10.254 10.255-13.083-10.254 10.961-21.215 25.459-28.641 41.016-7.779 15.558-12.022 31.47-13.79 43.138"
                                      fill="#ed1703" fill-rule="nonzero" stroke="none" stroke-width="1"
                                      stroke-linecap="butt" stroke-linejoin="miter" stroke-miterlimit="10"
                                      stroke-dasharray="" stroke-dashoffset="0" font-family="none" font-weight="none"
                                      font-size="none" text-anchor="none" style="mix-blend-mode: normal"
                                      data-fill-palette-color="tertiary"></path>
                            </g>
                            <g transform="matrix(1,0,0,1,48,100.69910625620655)">
                                <svg viewBox="0 0 224 158.6017874875869" height="158.6017874875869" width="224">
                                    <g>
                                        <svg viewBox="0 0 224 158.6017874875869" height="158.6017874875869" width="224">
                                            <g>
                                                <svg viewBox="0 0 224 158.6017874875869" height="158.6017874875869"
                                                     width="224">
                                                    <g>
                                                        <svg viewBox="0 0 224 158.6017874875869"
                                                             height="158.6017874875869" width="224">
                                                            <g id="textblocktransform">
                                                                <svg viewBox="0 0 224 158.6017874875869"
                                                                     height="158.6017874875869" width="224"
                                                                     id="textblock">
                                                                    <g>
                                                                        <svg viewBox="0 0 224 158.6017874875869"
                                                                             height="158.6017874875869" width="224">
                                                                            <g transform="matrix(1,0,0,1,0,0)">
                                                                                <svg width="224"
                                                                                     viewBox="3.35 -35.05 50.35 35.65"
                                                                                     height="158.6017874875869"
                                                                                     data-palette-color="#ed1703">
                                                                                    <path d="M16 0.6Q9.95 0.6 6.65-3.98 3.35-8.55 3.35-17.25L3.35-17.25Q3.35-25.9 6.68-30.48 10-35.05 16.05-35.05L16.05-35.05Q18.6-35.05 20.7-34.43 22.8-33.8 23.98-32.77 25.15-31.75 25.15-30.7L25.15-30.7Q25.15-30.15 24.63-29.8 24.1-29.45 23.4-29.6L23.4-29.6Q23-31.4 21.05-32.48 19.1-33.55 16.1-33.55L16.1-33.55Q11.1-33.55 8.38-29.4 5.65-25.25 5.65-17.25L5.65-17.25Q5.65-9.25 8.38-5.08 11.1-0.9 16.05-0.9L16.05-0.9Q18.95-0.9 21.4-2.35 23.85-3.8 24.45-6.2L24.45-6.2Q25.2-6.25 25.7-6 26.2-5.75 26.2-5.1L26.2-5.1Q26.2-3.85 24.8-2.5 23.4-1.15 21.03-0.28 18.65 0.6 16 0.6L16 0.6ZM45.9-18Q49.85-17.35 51.77-15.13 53.7-12.9 53.7-9L53.7-9Q53.7-5.45 52.12-3.5 50.55-1.55 47.57-0.78 44.6 0 39.9 0L39.9 0 35.6 0Q34.4 0 34.3-1.4L34.3-1.4 34.3-29.7Q34.3-30.55 34.2-32.1 34.1-33.65 33.9-34.3L33.9-34.3Q35.2-35.05 39.55-35.05L39.55-35.05Q45.85-35.05 48.9-33.05 51.95-31.05 51.95-26.6L51.95-26.6Q51.95-23.45 50.42-21.23 48.9-19 45.9-18L45.9-18ZM39.15-33.75Q37.1-33.75 36.45-33.55L36.45-33.55 36.45-18.65 41.85-18.65Q45.2-18.65 47.45-20.63 49.7-22.6 49.7-26.55L49.7-26.55Q49.7-30.45 47.22-32.1 44.75-33.75 39.15-33.75L39.15-33.75ZM40.35-1.5Q44-1.5 46.4-2.13 48.8-2.75 50.1-4.4 51.4-6.05 51.4-9.1L51.4-9.1Q51.4-13.6 48.6-15.4 45.8-17.2 40.3-17.2L40.3-17.2 36.45-17.2 36.45-1.5 40.35-1.5Z"
                                                                                          opacity="1"
                                                                                          transform="matrix(1,0,0,1,0,0)"
                                                                                          fill="#ed1703"
                                                                                          class="wordmark-text-0"
                                                                                          data-fill-palette-color="primary"
                                                                                          id="text-0"></path>
                                                                                </svg>
                                                                            </g>
                                                                        </svg>
                                                                    </g>
                                                                </svg>
                                                            </g>
                                                        </svg>
                                                    </g>
                                                    <g></g>
                                                </svg>
                                            </g>
                                        </svg>
                                    </g>
                                </svg>
                            </g>
                        </svg>
                    </g>
                    <defs></defs>
                </svg>
                <rect width="320" height="360" fill="none" stroke="none" visibility="hidden"></rect>
            </g>
        </svg>
    </g>
</svg>